<svg version="1.1" xmlns="http://www.w3.org/2000/svg" xmlns:xlink="http://www.w3.org/1999/xlink" width="48px" height="48px" viewBox="0,0,256,256"><g fill="#ff7400" fill-rule="nonzero" stroke="none" stroke-width="1" stroke-linecap="butt" stroke-linejoin="miter" stroke-miterlimit="10" stroke-dasharray="" stroke-dashoffset="0" font-family="none" font-weight="none" font-size="none" text-anchor="none" style="mix-blend-mode: normal"><g transform="translate(0,-0.00091) scale(5.33333,5.33333)"><path d="M47,12c0,-1.10457 -0.89543,-2 -2,-2h-21c-1.10457,0 -2,0.89543 -2,2c0,1.10457 0.89543,2 2,2h21c1.10457,0 2,-0.89543 2,-2z"></path><path d="M3,14h5.35c0.97407,2.75509 3.79133,4.40774 6.67147,3.91359c2.88013,-0.49415 4.98539,-2.99137 4.98539,-5.91359c0,-2.92222 -2.10525,-5.41944 -4.98539,-5.91359c-2.88013,-0.49415 -5.69739,1.1585 -6.67147,3.91359h-5.35c-1.10457,0 -2,0.89543 -2,2c0,1.10457 0.89543,2 2,2zM14,10c1.10457,0 2,0.89543 2,2c0,1.10457 -0.89543,2 -2,2c-1.10457,0 -2,-0.89543 -2,-2c0,-1.10457 0.89543,-2 2,-2z"></path><path d="M45,22h-7.35c-0.97407,-2.75509 -3.79133,-4.40774 -6.67147,-3.91359c-2.88013,0.49415 -4.98539,2.99137 -4.98539,5.91359c0,2.92222 2.10525,5.41944 4.98539,5.91359c2.88013,0.49415 5.69739,-1.1585 6.67147,-3.91359h7.35c1.10457,0 2,-0.89543 2,-2c0,-1.10457 -0.89543,-2 -2,-2zM32,26c-1.10457,0 -2,-0.89543 -2,-2c0,-1.10457 0.89543,-2 2,-2c1.10457,0 2,0.89543 2,2c0,1.10457 -0.89543,2 -2,2z"></path><path d="M22,22h-19c-1.10457,0 -2,0.89543 -2,2c0,1.10457 0.89543,2 2,2h19c1.10457,0 2,-0.89543 2,-2c0,-1.10457 -0.89543,-2 -2,-2z"></path><path d="M45,34h-17c-1.10457,0 -2,0.89543 -2,2c0,1.10457 0.89543,2 2,2h17c1.10457,0 2,-0.89543 2,-2c0,-1.10457 -0.89543,-2 -2,-2z"></path><path d="M18,30c-2.54018,0.0029 -4.80327,1.60509 -5.65,4h-9.35c-1.10457,0 -2,0.89543 -2,2c0,1.10457 0.89543,2 2,2h9.35c1.01739,2.8776 4.03293,4.53288 7.00683,3.84615c2.9739,-0.68672 4.95837,-3.49659 4.61105,-6.52892c-0.34732,-3.03233 -2.91572,-5.32072 -5.96788,-5.31723zM18,38c-1.10457,0 -2,-0.89543 -2,-2c0,-1.10457 0.89543,-2 2,-2c1.10457,0 2,0.89543 2,2c0,1.10457 -0.89543,2 -2,2z"></path></g></g></svg>